<svg width="16" height="16" viewBox="0 0 16 16" fill="none" xmlns="http://www.w3.org/2000/svg">
<path d="M11.2466 12.7066H5.91329C3.79996 12.7066 2.07996 10.9866 2.07996 8.87331C2.07996 6.75998 3.79996 5.03998 5.91329 5.03998H13.2466C13.52 5.03998 13.7466 5.26665 13.7466 5.53998C13.7466 5.81331 13.52 6.03998 13.2466 6.03998H5.91329C4.35329 6.03998 3.07996 7.31331 3.07996 8.87331C3.07996 10.4333 4.35329 11.7066 5.91329 11.7066H11.2466C11.52 11.7066 11.7466 11.9333 11.7466 12.2066C11.7466 12.48 11.5266 12.7066 11.2466 12.7066Z" fill="#393D41"/>
<path d="M11.7133 7.70665C11.5866 7.70665 11.46 7.65998 11.36 7.55998C11.1666 7.36665 11.1666 7.04665 11.36 6.85332L12.7133 5.49998L11.36 4.14665C11.1666 3.95332 11.1666 3.63332 11.36 3.43998C11.5533 3.24665 11.8733 3.24665 12.0666 3.43998L13.7733 5.14665C13.9666 5.33998 13.9666 5.65998 13.7733 5.85332L12.0666 7.55998C11.9666 7.65998 11.84 7.70665 11.7133 7.70665Z" fill="#393D41"/>
</svg>
