<svg width="16" height="16" viewBox="0 0 16 16" fill="none" xmlns="http://www.w3.org/2000/svg">
<path d="M10.0866 12.7066H4.7533C4.47996 12.7066 4.2533 12.48 4.2533 12.2066C4.2533 11.9333 4.47996 11.7066 4.7533 11.7066H10.0866C11.6466 11.7066 12.92 10.4333 12.92 8.87331C12.92 7.31331 11.6466 6.03998 10.0866 6.03998H2.7533C2.47996 6.03998 2.2533 5.81331 2.2533 5.53998C2.2533 5.26665 2.47996 5.03998 2.7533 5.03998H10.0866C12.2 5.03998 13.92 6.75998 13.92 8.87331C13.92 10.9866 12.2 12.7066 10.0866 12.7066Z" fill="#393D41"/>
<path d="M4.28667 7.70665C4.16 7.70665 4.03333 7.65998 3.93333 7.55998L2.22667 5.85332C2.03333 5.65998 2.03333 5.33998 2.22667 5.14665L3.93333 3.43998C4.12667 3.24665 4.44667 3.24665 4.64 3.43998C4.83333 3.63332 4.83333 3.95332 4.64 4.14665L3.28666 5.49998L4.64 6.85332C4.83333 7.04665 4.83333 7.36665 4.64 7.55998C4.54667 7.65998 4.41333 7.70665 4.28667 7.70665Z" fill="#393D41"/>
</svg>
