<svg width="16" height="16" viewBox="0 0 16 16" fill="none" xmlns="http://www.w3.org/2000/svg">
<path fill-rule="evenodd" clip-rule="evenodd" d="M1.33329 2C1.70148 2 1.99996 2.29848 1.99996 2.66667V12C1.99996 12.3682 2.29844 12.6667 2.66663 12.6667H14.6666C15.0348 12.6667 15.3333 12.9651 15.3333 13.3333C15.3333 13.7015 15.0348 14 14.6666 14H2.66663C1.56206 14 0.666626 13.1046 0.666626 12V2.66667C0.666626 2.29848 0.965103 2 1.33329 2Z" fill="#737A91"/>
<path d="M12 3.33334C11.6319 3.33334 11.3334 3.63181 11.3334 4V10.6667C11.3334 11.0349 11.6319 11.3333 12 11.3333C12.3682 11.3333 12.6667 11.0349 12.6667 10.6667V4C12.6667 3.63181 12.3682 3.33334 12 3.33334Z" fill="#737A91"/>
<path d="M6.66671 4.66667C6.29852 4.66667 6.00004 4.96515 6.00004 5.33334V10.6667C6.00004 11.0349 6.29852 11.3333 6.66671 11.3333C7.0349 11.3333 7.33337 11.0349 7.33337 10.6667V5.33334C7.33337 4.96515 7.0349 4.66667 6.66671 4.66667Z" fill="#737A91"/>
<path d="M4.00004 8.66667C3.63185 8.66667 3.33337 8.96515 3.33337 9.33334V10.6667C3.33337 11.0349 3.63185 11.3333 4.00004 11.3333C4.36823 11.3333 4.66671 11.0349 4.66671 10.6667V9.33334C4.66671 8.96515 4.36823 8.66667 4.00004 8.66667Z" fill="#737A91"/>
<path d="M8.66671 6.66667C8.66671 6.29848 8.96518 6 9.33337 6C9.70156 6 10 6.29848 10 6.66667V10.6667C10 11.0349 9.70156 11.3333 9.33337 11.3333C8.96518 11.3333 8.66671 11.0349 8.66671 10.6667V6.66667Z" fill="#737A91"/>
</svg>
